HIERARCHY
ROOT Hips
{
	OFFSET 0.000000 0.000000 0.000000
	CHANNELS 6 Xposition Yposition Zposition Xrotation Yrotation Zrotation
	JOINT LeftUpLeg_virtual
	{
		OFFSET 0.000000 0.000000 0.000000
		CHANNELS 3 Xrotation Yrotation Zrotation
		JOINT LeftUpLeg
		{
			OFFSET 11.394100 -6.187798 -0.413800
			CHANNELS 3 Xrotation Yrotation Zrotation
			JOINT LeftLeg
			{
				OFFSET 0.430247 -32.302673 3.732800
				CHANNELS 3 Xrotation Yrotation Zrotation
				JOINT LeftFoot
				{
					OFFSET -0.430247 -48.264931 -6.423300
					CHANNELS 3 Xrotation Yrotation Zrotation
					JOINT LeftToeBase
					{
						OFFSET 4.230900 -16.068199 23.438400
						CHANNELS 3 Xrotation Yrotation Zrotation
						JOINT LeftToe_End
						{
							OFFSET 4.510700 0.695400 19.974600
							CHANNELS 3 Xrotation Yrotation Zrotation
							End Site
							{
								OFFSET 0 0 0
							}
						}
					}
				}
			}
		}
	}
	JOINT RightUpLeg_virtual
	{
		OFFSET 0.000000 0.000000 0.000000
		CHANNELS 3 Xrotation Yrotation Zrotation
		JOINT RightUpLeg
		{
			OFFSET -11.333700 -6.187798 -0.413800
			CHANNELS 3 Xrotation Yrotation Zrotation
			JOINT RightLeg
			{
				OFFSET -0.430392 -32.302628 3.733000
				CHANNELS 3 Xrotation Yrotation Zrotation
				JOINT RightFoot
				{
					OFFSET 0.430392 -48.264973 -6.423500
					CHANNELS 3 Xrotation Yrotation Zrotation
					JOINT RightToeBase
					{
						OFFSET -4.230900 -16.068199 23.438400
						CHANNELS 3 Xrotation Yrotation Zrotation
						JOINT RightToe_End
						{
							OFFSET -4.510700 0.695400 19.974600
							CHANNELS 3 Xrotation Yrotation Zrotation
							End Site
							{
								OFFSET 0 0 0
							}
						}
					}
				}
			}
		}
	}
	JOINT Spine_virtual
	{
		OFFSET 0.000000 0.000000 0.000000
		CHANNELS 3 Xrotation Yrotation Zrotation
		JOINT Spine
		{
			OFFSET -0.002400 12.777504 0.315300
			CHANNELS 3 Xrotation Yrotation Zrotation
			JOINT Spine1
			{
				OFFSET -0.002067 5.816869 0.032633
				CHANNELS 3 Xrotation Yrotation Zrotation
				JOINT Spine1_split
				{
					OFFSET -0.002067 5.816869 0.032633
					CHANNELS 3 Xrotation Yrotation Zrotation
					JOINT Spine2
					{
						OFFSET -0.002067 5.816869 0.032633
						CHANNELS 3 Xrotation Yrotation Zrotation
						JOINT Neck_virtual
						{
							OFFSET 0.000000 0.000000 0.000000
							CHANNELS 3 Xrotation Yrotation Zrotation
							JOINT Neck
							{
								OFFSET -0.003700 21.199493 -0.826900
								CHANNELS 3 Xrotation Yrotation Zrotation
								JOINT Head
								{
									OFFSET 0.000000 20.442200 4.834800
									CHANNELS 3 Xrotation Yrotation Zrotation
									JOINT HeadTop_End
									{
										OFFSET 0.000000 34.668396 4.968400
										CHANNELS 3 Xrotation Yrotation Zrotation
										End Site
										{
											OFFSET 0 0 0
										}
									}
								}
							}
						}
						JOINT LeftShoulder_virtual
						{
							OFFSET 0.000000 0.000000 0.000000
							CHANNELS 3 Xrotation Yrotation Zrotation
							JOINT LeftShoulder
							{
								OFFSET 3.288150 8.794197 -1.372250
								CHANNELS 3 Xrotation Yrotation Zrotation
								JOINT LeftShoulder_split
								{
									OFFSET 3.288150 8.794197 -1.372250
									CHANNELS 3 Xrotation Yrotation Zrotation
									JOINT LeftArm
									{
										OFFSET 11.953299 -2.279007 -0.146200
										CHANNELS 3 Xrotation Yrotation Zrotation
										JOINT LeftForeArm
										{
											OFFSET 18.448900 0.000000 0.000000
											CHANNELS 3 Xrotation Yrotation Zrotation
											JOINT LeftHand
											{
												OFFSET 29.527798 0.000000 0.000000
												CHANNELS 3 Xrotation Yrotation Zrotation
												End Site
												{
													OFFSET 0 0 0
												}
											}
										}
									}
								}
							}
						}
						JOINT RightShoulder_virtual
						{
							OFFSET 0.000000 0.000000 0.000000
							CHANNELS 3 Xrotation Yrotation Zrotation
							JOINT RightShoulder
							{
								OFFSET -3.249400 8.794197 -1.372250
								CHANNELS 3 Xrotation Yrotation Zrotation
								JOINT RightShoulder_split
								{
									OFFSET -3.249400 8.794197 -1.372250
									CHANNELS 3 Xrotation Yrotation Zrotation
									JOINT RightArm
									{
										OFFSET -11.953299 -2.279007 -0.146200
										CHANNELS 3 Xrotation Yrotation Zrotation
										JOINT RightForeArm
										{
											OFFSET -18.448900 0.000000 0.000000
											CHANNELS 3 Xrotation Yrotation Zrotation
											JOINT RightHand
											{
												OFFSET -29.527802 0.000000 0.000000
												CHANNELS 3 Xrotation Yrotation Zrotation
												End Site
												{
													OFFSET 0 0 0
												}
											}
										}
									}
								}
							}
						}
					}
				}
			}
		}
	}
}
MOTION
Frames: 9
Frame Time: 0.03333333
-1.059098 99.763748 0.913956 0.000000 0.000000 0.000000 1.204557 -5.245989 0.739000 -17.141336 -6.185130 10.312003 25.386862 4.393072 0.351752 -1.799771 9.292669 -10.043311 -1.685908 0.732285 -1.871531 0.000000 0.000000 0.000000 2.008688 -6.184857 0.584334 -8.109624 -4.252357 -11.644513 18.118468 2.486940 0.398520 -7.979929 -12.341063 12.067669 1.982764 -1.502978 -0.264457 0.000000 0.000000 0.000000 1.920951 -2.851627 -0.563543 2.112486 -0.869658 0.526037 2.365611 -0.052497 0.293427 1.211471 -0.313755 -0.249424 0.000000 0.000000 0.000000 2.269306 -0.046832 0.097244 -1.069344 0.692751 1.133763 1.343891 0.694788 2.382863 0.000000 0.000000 0.000000 1.837692 0.136723 0.095681 0.588430 9.550957 -11.452875 -0.920385 -1.347142 -1.021490 14.076123 -8.737047 -50.398156 1.559718 -34.810168 1.595359 0.000000 0.000000 0.000000 2.116087 -0.005182 0.128159 1.609753 -8.077452 12.821844 1.181516 2.116798 -2.453657 6.079358 20.652317 60.830279 2.549617 24.369137 0.979613 0.000000 0.000000 0.000000 
-1.175752 99.835854 0.783344 0.000000 0.000000 0.000000 1.164276 -4.731326 1.039447 -16.793960 -4.652875 9.800197 25.068775 3.950815 0.215210 -2.453318 8.288465 -9.786308 -1.988504 0.601721 -1.403868 0.000000 0.000000 0.000000 1.881786 -5.810628 0.785151 -8.300558 -4.570901 -12.000518 17.418231 2.268135 0.507265 -8.252906 -12.012663 10.827428 2.863786 -1.530769 0.265898 0.000000 0.000000 0.000000 2.043980 -2.744699 -0.036206 2.209980 -1.037503 0.426563 2.219499 -0.109812 0.245588 1.042975 -0.504015 -0.234556 0.000000 0.000000 0.000000 2.213886 -0.097758 0.072415 -0.765499 0.742201 0.870438 1.712202 0.873486 2.455568 0.000000 0.000000 0.000000 1.807235 0.061399 0.054533 0.615305 9.395784 -11.415822 -0.964860 -1.176345 -0.999522 13.803317 -9.522853 -50.756208 1.606843 -35.286823 1.658339 0.000000 0.000000 0.000000 2.086263 -0.067601 0.132089 1.677181 -8.062538 12.823350 1.012288 2.144225 -2.713504 5.855069 20.878215 60.681040 2.506379 25.347889 0.999912 0.000000 0.000000 0.000000 
-1.372128 99.956329 0.449608 0.000000 0.000000 0.000000 1.013354 -4.211948 1.742786 -15.819768 -2.613225 8.773854 23.952044 3.278052 -0.089552 -3.108038 6.511659 -9.664246 -2.847275 0.433920 -0.684479 0.000000 0.000000 0.000000 1.733656 -5.334891 1.368700 -9.635910 -4.996587 -12.678463 18.364811 2.086323 0.678984 -8.448953 -11.318723 8.871179 1.741623 -1.446931 0.565616 0.000000 0.000000 0.000000 2.061956 -2.791006 0.786095 2.433556 -1.447462 0.098566 1.962408 -0.221733 0.129699 0.974305 -0.413172 -0.185249 0.000000 0.000000 0.000000 1.946723 -0.184420 -0.006253 -0.451861 0.729532 0.599634 2.642024 1.078023 2.573541 0.000000 0.000000 0.000000 1.607684 -0.062195 -0.007226 0.603234 9.015377 -11.317422 -0.864963 -0.857287 -0.914836 13.810739 -10.663937 -51.185537 1.333415 -35.780346 1.470864 0.000000 0.000000 0.000000 1.879981 -0.184867 0.100815 1.712371 -7.833987 12.821470 0.963634 2.065303 -2.894961 5.760091 21.246951 60.470451 2.354471 26.598367 1.017713 0.000000 0.000000 0.000000 
-1.555266 99.955811 0.109169 0.000000 0.000000 0.000000 0.767699 -3.977709 2.619421 -14.294493 -0.171892 7.471487 22.113142 2.918663 -0.560117 -3.957874 4.561533 -8.995493 -3.154662 0.273399 -0.099767 0.000000 0.000000 0.000000 1.500916 -4.928889 2.162277 -12.117939 -5.428546 -13.464040 21.150196 1.978068 0.904637 -8.324741 -10.364068 6.508673 -1.539905 -1.398910 0.686703 0.000000 0.000000 0.000000 2.009307 -3.305833 1.676021 2.798279 -2.025416 -0.406512 1.629585 -0.372559 -0.011045 0.968861 -0.244202 -0.088505 0.000000 0.000000 0.000000 1.556446 -0.287079 -0.109592 -0.180568 0.667050 0.389224 4.034680 1.351894 2.676665 0.000000 0.000000 0.000000 1.291066 -0.208967 -0.066964 0.549803 8.425248 -11.168302 -0.727584 -0.455289 -0.744567 14.081347 -11.972012 -51.635581 0.835647 -36.148605 1.105255 0.000000 0.000000 0.000000 1.548987 -0.330516 0.050958 1.702694 -7.404254 12.896762 0.944242 1.888641 -2.912253 5.803817 21.711445 60.159343 2.157692 27.771916 0.993337 0.000000 0.000000 0.000000 
-1.729500 99.734962 -0.209553 0.000000 0.000000 0.000000 0.576275 -4.244391 3.398801 -12.390248 2.425670 6.111464 19.817280 3.296014 -1.076192 -5.234946 2.993890 -7.320287 -2.124129 0.157739 -0.099307 0.000000 0.000000 0.000000 1.298063 -5.063210 2.949984 -15.367026 -5.758605 -13.976733 25.096661 2.014036 1.143822 -7.944198 -9.114531 4.078443 -6.143146 -1.439502 0.461598 0.000000 0.000000 0.000000 1.777880 -4.427757 2.388855 3.268058 -2.643934 -0.960335 1.275103 -0.529452 -0.120446 1.095282 -0.031576 -0.064497 0.000000 0.000000 0.000000 1.146858 -0.386727 -0.200725 0.012887 0.586836 0.274782 5.770028 1.722607 2.689771 0.000000 0.000000 0.000000 0.938319 -0.344318 -0.103504 0.461384 7.689318 -10.980388 -0.710030 -0.136870 -0.604478 14.593659 -13.348289 -52.033464 0.291463 -36.394557 0.709261 0.000000 0.000000 0.000000 1.164969 -0.474042 0.004413 1.646890 -6.802667 13.115575 0.850718 1.635123 -2.861969 5.944187 22.151156 59.731275 1.975896 28.699359 0.914126 0.000000 0.000000 0.000000 
-1.780605 99.307465 -0.269741 0.000000 0.000000 0.000000 0.460144 -5.169016 3.828646 -10.281672 4.719592 4.966233 17.429319 4.191292 -1.417486 -6.788541 1.858844 -5.023538 -0.586368 0.119639 -0.342568 0.000000 0.000000 0.000000 1.122914 -5.891637 3.490224 -18.668461 -5.979771 -13.871839 29.208983 2.301527 1.404441 -7.487388 -7.431767 1.731775 -10.380103 -1.500384 -0.092008 0.000000 0.000000 0.000000 1.432946 -5.963359 2.756258 3.776070 -3.157411 -1.425841 0.959346 -0.654653 -0.162979 1.244996 0.130655 -0.017988 0.000000 0.000000 0.000000 0.806777 -0.465219 -0.253838 0.154756 0.506236 0.245726 7.766396 2.210906 2.525300 0.000000 0.000000 0.000000 0.628112 -0.445904 -0.105055 0.367334 6.906664 -10.762107 -0.824869 0.017500 -0.456850 15.302532 -14.731473 -52.290699 -0.103119 -36.576127 0.425165 0.000000 0.000000 0.000000 0.802838 -0.594880 -0.021074 1.556545 -6.072662 13.526507 0.689549 1.391447 -2.786168 6.158449 22.379907 59.249712 1.845966 29.448777 0.779399 0.000000 0.000000 0.000000 
-1.684103 98.822685 -0.356857 0.000000 0.000000 0.000000 0.347112 -6.572846 3.832585 -8.598190 6.527206 4.333885 15.780005 4.985335 -1.530349 -8.069300 0.925365 -3.293996 0.511967 0.120869 -0.614906 0.000000 0.000000 0.000000 1.029075 -7.277399 3.614284 -21.214865 -6.242651 -12.957608 32.397329 2.885327 1.683243 -6.927264 -5.282663 -0.462251 -13.071808 -1.441387 -0.795922 0.000000 0.000000 0.000000 1.063355 -7.664440 2.769471 4.285761 -3.476194 -1.707914 0.717864 -0.729915 -0.141555 1.238815 0.262257 0.112415 0.000000 0.000000 0.000000 0.589569 -0.511773 -0.255469 0.306430 0.467640 0.275127 9.935142 2.793254 2.156437 0.000000 0.000000 0.000000 0.415021 -0.500480 -0.076177 0.300916 6.188080 -10.542849 -0.987918 0.029583 -0.358519 16.146405 -16.067800 -52.336628 -0.230894 -36.712933 0.325639 0.000000 0.000000 0.000000 0.515891 -0.684094 -0.030626 1.447164 -5.296802 14.056037 0.562343 1.336426 -2.711950 6.480441 22.195535 58.813031 1.776333 30.310023 0.604690 0.000000 0.000000 0.000000 
-1.460865 98.432144 -0.533810 0.000000 0.000000 0.000000 0.142321 -8.132798 3.517425 -7.648892 7.703478 4.092115 15.469456 5.675305 -1.491636 -9.257007 0.247185 -2.417113 0.657918 0.109397 -0.998235 0.000000 0.000000 0.000000 0.998458 -9.051078 3.348964 -22.357378 -6.476953 -11.228294 33.835494 3.808058 1.941423 -6.150150 -2.787740 -2.259949 -13.887318 -1.200545 -1.475048 0.000000 0.000000 0.000000 0.659344 -9.342799 2.494042 4.759552 -3.568780 -1.777494 0.575121 -0.744003 -0.085310 1.173155 0.307813 0.242104 0.000000 0.000000 0.000000 0.501663 -0.528005 -0.209649 0.526090 0.498075 0.312943 12.172662 3.451590 1.607544 0.000000 0.000000 0.000000 0.311133 -0.515387 -0.032022 0.274369 5.630422 -10.351304 -1.106778 -0.164579 -0.237398 17.060699 -17.285160 -52.119210 -0.100296 -36.763708 0.407461 0.000000 0.000000 0.000000 0.335871 -0.736668 -0.035065 1.346643 -4.535078 14.634927 0.449456 1.518240 -2.704549 6.943892 21.423109 58.548757 1.743266 31.607687 0.440697 0.000000 0.000000 0.000000 
-1.118557 98.116730 -0.710121 0.000000 0.000000 0.000000 -0.198507 -9.632321 2.953408 -7.831221 7.957123 4.217181 17.052230 6.039691 -1.296433 -10.146196 -0.087762 -2.723848 -0.195935 0.162371 -1.189252 0.000000 0.000000 0.000000 0.910902 -10.900201 2.793330 -21.941081 -6.574111 -9.005299 33.251810 5.103707 2.112881 -5.121416 -0.223527 -3.500789 -13.271982 -0.842175 -1.837100 0.000000 0.000000 0.000000 0.283885 -10.800571 2.083804 5.148823 -3.450750 -1.696160 0.501303 -0.717061 -0.036237 1.070938 0.294222 0.275198 0.000000 0.000000 0.000000 0.507702 -0.524481 -0.142549 0.855673 0.596315 0.355140 14.414600 4.144925 0.948732 0.000000 0.000000 0.000000 0.296176 -0.506417 0.008024 0.297210 5.289133 -10.183317 -1.125977 -0.562347 -0.122592 17.903160 -18.377537 -51.676112 0.158921 -36.718028 0.568892 0.000000 0.000000 0.000000 0.264470 -0.765450 -0.043728 1.270981 -3.844811 15.177095 0.264628 1.861812 -2.759153 7.564374 20.020761 58.536463 1.713414 33.448543 0.325387 0.000000 0.000000 0.000000 
